<svg width="724" height="100" viewBox="0 0 724 100" fill="none" xmlns="http://www.w3.org/2000/svg">
<path d="M23.75 0V23.75L0 0H23.75Z" fill="#295965"/>
<path d="M362.5 23.75H386.25L362.5 48.75V23.75Z" fill="#295965"/>
<path d="M415 23.75H440L415 48.75V23.75Z" fill="#295965"/>
<path d="M8.75 39.287V100H23.75V23.75L8.75 39.287Z" fill="white"/>
<path d="M83.0971 23.8421C75.718 23.8421 67.7066 26.7337 61.9058 31.4373V23.75H46.25V100H61.9058V46.553C66.7693 41.2132 72.7026 38.62 79.9934 38.62C92.1652 38.62 98.0809 45.0393 98.0809 58.2551V100H113.75V55.9428C113.75 34.6447 103.426 23.8421 83.0971 23.8421Z" fill="white"/>
<path d="M198.75 23.75H181.964L160.004 76.451L136.962 23.75H118.75L153.92 99.6885L154.066 100H165.152L198.75 23.75Z" fill="white"/>
<path d="M234.909 23.75C223.281 23.75 214.054 27.4265 207.498 34.6742C200.865 41.8385 197.5 50.9903 197.5 61.875C197.5 73.2818 201.091 82.6266 208.17 89.5979C215.248 96.5692 224.484 100 236.295 100C247.344 100 256.48 96.7754 263.453 90.4183L264.277 89.6549L257.408 78.2481C252.614 82.8021 245.806 85.1098 237.219 85.1098C225.015 85.1098 216.468 78.3403 214.812 67.3941H267.703L267.96 66.078C268.505 63.2109 268.769 60.297 268.749 57.3781C268.749 47.5375 265.467 39.4168 258.999 33.2483C252.622 26.9351 244.502 23.75 234.909 23.75ZM252.587 54.0219H214.132C216.12 44.506 223.786 38.6315 234.29 38.6315C244.794 38.6315 251.411 44.2427 252.587 54.035V54.0219Z" fill="white"/>
<path d="M435.804 81.8773C433.012 84.1217 429.542 85.3485 425.963 85.3566C418.833 85.3566 415.37 80.2855 415.37 69.8564V3.75L400 19.1545V71.0785C400 90.806 407.329 100 423.068 100C430.306 100 436.52 97.9255 441.584 93.8417L442.5 93.098L437.466 80.59L435.804 81.8773Z" fill="white"/>
<path d="M383.3 81.8773C380.508 84.1223 377.038 85.3492 373.458 85.3566C366.333 85.3566 362.866 80.2855 362.866 69.8564V3.75L347.5 19.1545V71.0785C347.5 90.806 354.829 100 370.568 100C377.802 100 384.02 97.9255 389.084 93.8417L390 93.098L384.966 80.59L383.3 81.8773Z" fill="white"/>
<path d="M574.375 23.75C562.756 23.75 553.162 27.4138 545.851 34.6316C538.651 41.7485 535 50.9144 535 61.8706C535 72.8268 538.651 81.9971 545.864 89.2808C553.224 96.3933 562.818 100 574.375 100C585.932 100 595.526 96.3889 602.735 89.2676C610.148 81.9445 613.75 72.9803 613.75 61.8706C613.75 50.8574 610.046 41.687 602.744 34.6403C595.588 27.4138 586.039 23.75 574.375 23.75ZM597.098 61.8706C597.098 75.5472 587.771 85.0993 574.375 85.0993C567.69 85.0993 562.165 82.9054 557.941 78.6098C553.717 74.3142 551.652 68.7901 551.652 61.8706C551.652 54.9512 553.824 49.3744 558.11 45.1402C562.325 40.8314 567.797 38.6464 574.384 38.6464C580.971 38.6464 586.443 40.8402 590.654 45.1402C594.989 49.585 597.098 55.0565 597.098 61.8706Z" fill="white"/>
<path d="M486.246 23.75C474.819 23.75 465.378 27.4138 458.183 34.6316C451.093 41.7485 447.5 50.9144 447.5 61.8706C447.5 72.8268 451.093 81.9971 458.196 89.2852C465.439 96.3933 474.876 100 486.246 100C497.68 100 507.07 96.3889 514.164 89.2676C521.455 81.9445 525 72.9803 525 61.8706C525 50.8574 521.354 41.687 514.173 34.6403C507.131 27.4138 497.733 23.75 486.246 23.75ZM508.604 61.8706C508.604 75.5472 499.425 85.0993 486.232 85.0993C479.676 85.0993 474.216 82.9054 470.059 78.6098C465.902 74.3142 463.857 68.7988 463.857 61.8706C463.857 54.9424 465.99 49.3744 470.208 45.1402C474.356 40.8314 479.746 38.6464 486.219 38.6464C492.693 38.6464 498.087 40.8402 502.235 45.1402C506.536 49.585 508.604 55.0565 508.604 61.8706Z" fill="white"/>
<path d="M657.07 82.547C654.228 84.3998 651.602 85.3435 649.283 85.3435C646.086 85.3435 642.824 83.917 642.824 73.353V3.75L627.5 19.1545V78.8634C627.5 92.8892 633.245 100 644.576 100C651.403 100 656.993 98.1864 661.665 94.4636L662.5 93.7895L658.857 81.3989L657.07 82.547Z" fill="white"/>
<path d="M700.243 54.7054L700.077 55.2143L700.238 54.7054C692.67 52.257 686.125 50.1378 686.125 44.9427C686.125 40.7787 690.062 37.8697 695.653 37.8697C701.8 37.8697 707.173 39.9714 712.091 44.3021L713.521 45.5614L721.116 33.3416L720.154 32.4289C713.998 26.5932 705.782 23.75 695.037 23.75C679.894 23.75 669.723 32.328 669.723 45.1006C669.723 60.8964 683.08 65.2359 693.833 68.7241C701.092 71.0716 707.357 73.1119 707.357 77.8725C707.357 83.4054 701.945 85.8757 696.585 85.8757C693.483 85.8757 690.023 85.0552 686.085 83.3747C682.485 81.782 679.58 79.7768 677.672 77.5829L676.399 76.0999L667.741 87.1043L667.5 87.4027L668.126 88.3855C669.989 91.2682 673.507 93.9053 678.88 96.437C683.993 98.8019 689.559 100.018 695.19 99.9998C703.253 99.9998 710.03 98.1219 715.315 94.4186C720.911 90.5092 723.75 84.7349 723.75 77.2495C723.754 62.3224 710.721 58.0971 700.243 54.7054Z" fill="white"/>
<path d="M310.235 54.7054C302.659 52.257 296.133 50.1334 296.133 44.9427C296.133 40.7787 300.07 37.8697 305.66 37.8697C311.784 37.8697 317.177 39.9714 322.093 44.3021L323.524 45.557L331.126 33.3416L330.163 32.4289C324.009 26.5932 315.795 23.75 305.052 23.75C289.913 23.75 279.744 32.328 279.744 45.1006C279.744 60.8964 293.102 65.2359 303.849 68.7241C311.101 71.0716 317.369 73.1119 317.369 77.8725C317.369 83.4054 311.959 85.8757 306.6 85.8757C303.495 85.8757 300.039 85.0552 296.103 83.3747C292.503 81.782 289.594 79.7768 287.696 77.5829L286.414 76.0999L277.5 87.4027L278.125 88.3855C279.989 91.2682 283.501 93.9053 288.877 96.437C293.989 98.8019 299.554 100.018 305.183 99.9998C313.249 99.9998 320.02 98.1219 325.304 94.4186C330.907 90.5092 333.75 84.7305 333.75 77.2495C333.75 62.3224 320.711 58.0971 310.235 54.7054Z" fill="white"/>
</svg>
